<svg width="1120" height="124" viewBox="0 0 1120 124" fill="none" xmlns="http://www.w3.org/2000/svg">
<rect width="1120" height="124" rx="4" fill="#F3B61F"/>
<g clip-path="url(#clip0_128_2351)">
<mask id="mask0_128_2351" style="mask-type:luminance" maskUnits="userSpaceOnUse" x="920" y="0" width="200" height="124">
<path d="M1120 0H920.559V124H1120V0Z" fill="white"/>
</mask>
<g mask="url(#mask0_128_2351)">
<path d="M1010.75 97.7893C1010.75 82.3257 1018.47 69.7456 1027.96 69.7456C1031.5 69.7456 1034.91 71.4998 1037.81 74.8191C1038.21 75.2779 1038.77 75.5306 1039.38 75.5306C1039.93 75.5306 1040.47 75.3126 1040.86 74.9325C1041.24 74.562 1041.44 74.0626 1041.43 73.5262C1041.43 73.2774 1041.42 73.0271 1041.42 72.7772C1041.42 66.6281 1042.65 60.9385 1044.71 56.3111C1044.27 55.7078 1043.78 55.14 1043.23 54.6107C1039.85 51.334 1034.93 50.0243 1029.33 50.4752C1027.39 50.6308 1026.3 48.3724 1027.7 47.0659C1027.93 46.845 1028.17 46.6218 1028.4 46.3962C1042.91 32.356 1047.62 14.1509 1038.92 5.73376C1032.11 -0.860712 1019.08 0.510237 1006.79 8.16406C1005.11 9.2059 1003.03 7.6113 1003.72 5.80579C1005.4 1.43468 1006.35 -3.56002 1006.35 -8.86671C1006.35 -26.0614 996.379 -40.0001 984.078 -40.0001C971.777 -40.0001 961.805 -26.0614 961.805 -8.86711C961.805 -3.56002 962.756 1.43468 964.432 5.80539C965.125 7.6109 963.043 9.2055 961.369 8.16366C949.072 0.50944 936.05 -0.861111 929.235 5.73336C920.537 14.1505 925.247 32.3556 939.756 46.3958C939.989 46.6214 940.224 46.8446 940.459 47.0655C941.853 48.3716 940.763 50.6304 938.83 50.4748C933.228 50.0239 928.309 51.3336 924.922 54.6103C916.224 63.0274 920.935 81.2325 935.443 95.2727C940.989 100.639 947.163 104.62 953.161 107.021C960.269 109.866 966.133 115.017 969.979 121.463L984.077 145.094L998.176 121.463C1001.47 115.939 1006.25 111.37 1012.03 108.385C1011.19 105.048 1010.75 101.465 1010.75 97.7893Z" fill="#448569"/>
<path d="M1010.75 97.7896C1010.75 82.3259 1018.47 69.7459 1027.96 69.7459C1031.5 69.7459 1034.91 71.5 1037.81 74.8194C1038.21 75.2782 1038.77 75.5309 1039.38 75.5309C1039.93 75.5309 1040.47 75.3128 1040.86 74.9328C1041.24 74.5623 1041.44 74.0628 1041.43 73.5264C1041.43 73.2777 1041.42 73.0274 1041.42 72.7775C1041.42 66.6283 1042.65 60.9388 1044.71 56.3114C1044.27 55.7081 1043.78 55.1402 1043.23 54.6109C1039.85 51.3342 1034.93 50.0245 1029.33 50.4754C1027.39 50.631 1026.3 48.3726 1027.7 47.0662C1027.93 46.8453 1028.17 46.622 1028.4 46.3964C1042.91 32.3562 1047.62 14.1511 1038.92 5.73398C1034.57 1.52046 1027.68 0.56379 1020.06 2.41546C1020.62 16.0501 1019.09 31.1035 1015.2 46.5548C1006.57 80.8356 988.537 108.206 969.097 120.068C969.401 120.527 969.697 120.991 969.98 121.464L984.078 145.095L998.177 121.464C1001.47 115.94 1006.25 111.371 1012.03 108.386C1011.19 105.048 1010.75 101.465 1010.75 97.7896Z" fill="#335E4B"/>
<path d="M1018.49 74.3775C1018.49 74.3715 1018.48 74.3651 1018.48 74.3595C1017.27 73.1943 1015.32 73.1943 1014.11 74.3595L987.162 100.441V60.0408L1018.38 29.8314C1019.58 28.6654 1019.58 26.7759 1018.38 25.6103C1017.17 24.4451 1015.22 24.4451 1014.02 25.6103L1006.62 32.7671L1000.44 26.7863C999.237 25.6211 997.284 25.6211 996.08 26.7863C994.875 27.9523 994.875 29.8417 996.08 31.0073L1002.26 36.9878L987.162 51.5983V-3.27939C987.162 -4.92811 985.781 -6.26404 984.077 -6.26404C982.374 -6.26404 980.993 -4.92811 980.993 -3.27939V51.5987L970.887 41.8193L970.882 41.8146L954.138 25.6103C952.934 24.4455 950.981 24.4447 949.776 25.6103C948.572 26.7763 948.572 28.6658 949.776 29.8314L961.258 40.9426H954.217C952.513 40.9426 951.132 42.2785 951.132 43.9273C951.132 45.576 952.513 46.9119 954.217 46.9119H967.426L980.993 60.0408V100.441L962.828 82.8626L969.403 76.5001C970.608 75.3341 970.608 73.4446 969.403 72.279C968.199 71.1138 966.246 71.1138 965.042 72.279L958.467 78.6419L951.612 72.0081C950.407 70.8433 948.455 70.8425 947.25 72.0081C946.046 73.1741 946.046 75.0636 947.25 76.2292L956.285 84.9721L956.286 84.9738L956.288 84.9749L980.993 108.883V160.767C980.993 162.416 982.374 163.752 984.078 163.752C985.781 163.752 987.162 162.416 987.162 160.767V108.883L1013.03 83.8507C1014.37 80.0418 1016.25 76.7939 1018.49 74.3775Z" fill="#304F41"/>
<path d="M1094.15 133.4C1094.15 129.733 1092.16 126.337 1088.76 123.556C1087.59 122.596 1088.29 120.743 1089.82 120.766C1090.08 120.77 1090.34 120.772 1090.6 120.772C1106.84 120.772 1120 113.137 1120 103.717C1120 96.338 1111.92 90.0544 1100.62 87.6786C1099.08 87.3551 1098.83 85.3358 1100.27 84.7007C1103.73 83.1626 1107.15 80.8832 1110.22 77.9136C1120.16 68.2931 1122.64 55.0951 1115.76 48.4349C1108.88 41.7748 1095.24 44.1744 1085.3 53.7945C1082.23 56.7637 1079.87 60.0734 1078.28 63.427C1077.62 64.8123 1075.54 64.5771 1075.2 63.0879C1072.75 52.147 1066.26 44.3292 1058.63 44.3292C1048.9 44.3292 1041.01 57.0657 1041.01 72.7769C1041.01 73.0296 1041.01 73.2815 1041.01 73.5322C1041.04 75.0173 1039.12 75.6911 1038.13 74.5573C1035.26 71.2722 1031.75 69.3409 1027.96 69.3409C1018.22 69.3409 1010.33 82.0774 1010.33 97.7886C1010.33 103.794 1011.49 109.364 1013.45 113.955C1015.79 119.395 1016.09 125.452 1014.51 131.141L1008.74 151.997L1030.29 146.409C1036.17 144.884 1042.43 145.177 1048.05 147.434C1052.79 149.338 1058.55 150.454 1064.76 150.454C1080.99 150.455 1094.15 142.819 1094.15 133.4Z" fill="#448569"/>
<path d="M1105.98 89.1816C1102.15 94.4839 1097.7 99.6537 1092.64 104.55C1067.71 128.67 1035.95 138.658 1014.57 130.929C1014.55 131 1014.53 131.071 1014.51 131.142L1008.74 151.998L1030.29 146.41C1036.17 144.885 1042.43 145.178 1048.05 147.435C1052.79 149.339 1058.55 150.455 1064.76 150.455C1080.99 150.455 1094.15 142.819 1094.15 133.4C1094.15 129.733 1092.16 126.337 1088.76 123.556C1087.59 122.596 1088.29 120.743 1089.82 120.766C1090.08 120.77 1090.34 120.772 1090.6 120.772C1106.84 120.772 1120 113.137 1120 103.718C1120 97.568 1114.39 92.1817 1105.98 89.1816Z" fill="#335E4B"/>
<path d="M1094.57 100.733H1086.94V94.663C1086.94 93.0143 1085.56 91.6784 1083.86 91.6784C1082.15 91.6784 1080.77 93.0143 1080.77 94.663V100.733H1066.08L1096.71 71.0915C1097.91 69.9255 1097.91 68.036 1096.71 66.8704C1095.5 65.7052 1093.55 65.7052 1092.35 66.8704L1061.71 96.5119V68.9346C1061.71 67.2859 1060.33 65.95 1058.63 65.95C1056.93 65.95 1055.55 67.2859 1055.55 68.9346V79.8643L1052.71 77.1153C1051.5 75.9501 1049.55 75.9501 1048.34 77.1153C1047.14 78.2813 1047.14 80.1708 1048.34 81.3364L1055.55 88.3061V102.481L1033.48 123.839V106.297H1040.19C1041.89 106.297 1043.27 104.961 1043.27 103.312C1043.27 101.663 1041.89 100.327 1040.19 100.327H1033.48V93.5265C1033.48 91.8778 1032.09 90.5418 1030.39 90.5418C1028.69 90.5418 1027.31 91.8778 1027.31 93.5265V129.809L997.496 158.656C996.292 159.822 996.292 161.712 997.496 162.877C998.098 163.46 998.888 163.751 999.677 163.751C1000.47 163.751 1001.26 163.46 1001.86 162.877L1031.67 134.03H1069.16C1070.86 134.03 1072.25 132.694 1072.25 131.045C1072.25 129.396 1070.86 128.061 1069.16 128.061H1037.84L1059.91 106.702H1094.57C1096.28 106.702 1097.66 105.366 1097.66 103.717C1097.66 102.068 1096.28 100.733 1094.57 100.733Z" fill="#304F41"/>
</g>
</g>
<defs>
<clipPath id="clip0_128_2351">
<rect width="199.442" height="124" fill="white" transform="translate(920.559)"/>
</clipPath>
</defs>
</svg>
